<?xml version="1.0" encoding="utf-8"?>
<!-- Generator: Adobe Illustrator 21.1.0, SVG Export Plug-In . SVG Version: 6.00 Build 0)  -->
<!DOCTYPE svg PUBLIC "-//W3C//DTD SVG 1.1//EN" "http://www.w3.org/Graphics/SVG/1.1/DTD/svg11.dtd">
<svg version="1.1" id="fthBrandmark" xmlns="http://www.w3.org/2000/svg" xmlns:xlink="http://www.w3.org/1999/xlink" x="0px" y="0px"
	 viewBox="0 0 37 33" style="enable-background:new 0 0 37 33;" xml:space="preserve">
<style type="text/css">
	.st0{fill:#242E2B;}
</style>
<g>
	<g>
		<path class="st0" d="M25.279,0.794c0,0,2.979,0,2.979,2.979v12.987h-7.52v2.682h7.52v9.783c0,2.98-2.979,2.98-2.979,2.98V33H36.72
			v-0.794c0,0-2.979,0-2.979-2.543V4.072c0-3.277,2.979-3.277,2.979-3.277V0H25.279V0.794z"/>
		<path class="st0" d="M9.735,16.761V2.9h8.793C21.962,2.9,22.5,5.88,22.5,5.88h0.794V0H0.28v0.794c0,0,3.972,0.15,3.972,3.972
			v24.459c0,2.979-2.979,2.979-2.979,2.979V33h11.441v-0.794c0,0-2.979,0-2.979-2.979v-9.783h6.211c1.986,0,1.986,2.979,1.986,2.979
			h0.794v-8.64h-0.794c0,0,0,2.979-1.986,2.979H9.735z"/>
	</g>
</g>
</svg>
